<svg clip-rule="evenodd" fill-rule="evenodd" stroke-linejoin="round" stroke-miterlimit="2" viewBox="0 0 300 300" xmlns="http://www.w3.org/2000/svg"><path d="m102.891 24.484c2.485.978 4.728 2.589 6.765 4.717 3.394 3.52 6.258 8.559 8.445 14.53 2.197 6.005 3.624 12.655 4.164 19.328 7.243-4.097 15.283-6.593 23.573-7.317l.587-.046c10.009-.806 19.903 1.001 28.531 5.453 1.162.611 2.301 1.264 3.417 1.955.575-6.546 1.979-13.046 4.142-18.913 2.186-5.982 5.05-11.01 8.433-14.542 1.89-2.045 4.203-3.654 6.777-4.717 2.956-1.15 6.097-1.357 9.157-.483 4.613 1.312 8.571 4.234 11.689 8.479 2.853 3.877 4.993 8.847 6.454 14.806 2.646 10.745 3.106 24.884 1.323 41.934l.61.46.299.219c8.709 6.627 14.772 16.071 17.982 27.035 5.004 17.107 2.485 36.297-6.143 47.031l-.207.242.023.035c4.797 8.766 7.708 18.027 8.329 27.611l.023.345c.736 12.252-2.301 24.585-9.365 36.699l-.081.115.115.276c5.43 13.311 7.132 26.714 5.039 40.105l-.069.449c-.671 4.046-4.547 6.827-8.594 6.167-2.978-.466-5.394-2.694-6.099-5.625-.229-.953-.267-1.943-.113-2.912 1.921-11.885.115-23.803-5.522-35.929-1.068-2.287-.895-4.968.46-7.098l.046-.069c6.949-10.63 9.825-21.053 9.204-31.292-.529-8.962-3.739-17.763-9.204-26.149-2.198-3.37-1.268-7.947 2.071-10.193l.104-.069c2.796-1.829 5.373-6.5 6.673-12.885 1.434-7.55 1.06-15.333-1.093-22.71-2.358-8.053-6.672-14.772-12.712-19.362-6.846-5.223-15.911-7.742-27.381-7.018-3.062.199-5.952-1.498-7.271-4.268-3.613-7.651-8.882-13.126-15.451-16.521-6.306-3.147-13.369-4.47-20.386-3.819-14.323 1.139-26.955 9.215-30.717 19.397-1.088 2.928-3.895 4.883-7.018 4.889-12.276.023-21.778 2.899-28.727 8.088-6.005 4.487-10.101 10.756-12.264 18.269-1.957 7.071-2.225 14.504-.782 21.698 1.288 6.42 3.808 11.735 6.696 14.599l.092.08c2.439 2.381 2.957 6.098 1.254 9.031-4.142 7.156-7.237 17.82-7.743 28.071-.575 11.711 2.14 21.882 8.272 29.175l.184.219c1.887 2.198 2.316 5.312 1.093 7.938-6.627 14.22-8.663 25.908-6.465 35.112.101.495.152.998.152 1.503 0 4.115-3.386 7.501-7.501 7.501-3.39 0-6.38-2.299-7.25-5.576-2.796-11.711-.897-25.126 5.441-40.243l.161-.402-.092-.138c-3.115-4.602-5.441-9.692-6.88-15.06l-.058-.218c-1.746-6.697-2.433-13.626-2.036-20.536.506-10.469 3.198-21.191 7.156-29.797l.138-.299-.023-.023c-3.37-4.809-5.867-10.963-7.248-17.774l-.058-.276c-1.902-9.499-1.535-19.315 1.07-28.646 3.015-10.527 8.939-19.569 17.671-26.104.69-.518 1.415-1.035 2.14-1.519-1.829-17.176-1.369-31.407 1.289-42.221 1.461-5.96 3.612-10.929 6.465-14.806 3.106-4.234 7.064-7.156 11.677-8.479 3.06-.874 6.212-.679 9.169.483v.011zm47.353 104.576c10.768 0 20.708 3.601 28.14 9.836 7.248 6.063 11.562 14.208 11.562 22.319 0 10.216-4.671 18.177-13.034 23.262-7.133 4.314-16.693 6.408-27.645 6.408-11.608 0-21.525-2.98-28.681-8.445-7.098-5.407-11.079-13-11.079-21.226 0-8.134 4.578-16.302 12.149-22.388 7.685-6.178 17.832-9.767 28.589-9.767zm0 10.308c-7.98-.07-15.753 2.567-22.043 7.478-5.303 4.256-8.306 9.606-8.306 14.38 0 4.924 2.416 9.538 7.018 13.046 5.235 3.992 12.931 6.305 22.353 6.305 9.192 0 16.946-1.691 22.227-4.901 5.326-3.221 8.053-7.892 8.053-14.461 0-4.866-2.83-10.239-7.858-14.45-5.568-4.659-13.115-7.397-21.444-7.397zm7.616 13.92.046.046c.565.709.873 1.59.873 2.497 0 1.223-.56 2.38-1.518 3.14l-3.359 2.646v5.131c-.012 2.363-1.963 4.298-4.326 4.292-2.362.005-4.313-1.93-4.326-4.292v-5.292l-3.118-2.508c-.945-.757-1.496-1.904-1.496-3.115 0-.919.317-1.81.898-2.522 1.404-1.709 3.959-1.973 5.683-.587l2.474 1.979 2.531-2.002c1.717-1.356 4.237-1.094 5.638.587zm-57.983-22.077c5.499 0 9.974 4.487 9.974 10.02.005 5.486-4.5 10.007-9.986 10.02-5.478-.018-9.975-4.531-9.974-10.009-.006-2.652 1.042-5.2 2.912-7.08 1.874-1.88 4.42-2.943 7.075-2.951zm100.158 0c5.522 0 9.986 4.487 9.986 10.02.006 5.487-4.499 10.008-9.986 10.02-5.478-.019-9.974-4.531-9.974-10.009-.012-5.486 4.488-10.013 9.974-10.032zm-102.494-92.807-.035.023c-1.333.58-2.471 1.53-3.279 2.738l-.058.069c-1.588 2.174-2.968 5.372-4.004 9.572-1.955 7.961-2.485 18.764-1.426 32.005 4.947-1.472 10.343-2.393 16.152-2.727l.115-.011.219-.391c.527-.94 1.096-1.858 1.702-2.75 1.415-8.87.253-19.466-2.91-28.117-1.542-4.187-3.417-7.478-5.212-9.353-.37-.39-.784-.737-1.231-1.035l-.035-.023zm105.543.46-.023.011c-.448.298-.86.646-1.231 1.035-1.795 1.876-3.682 5.177-5.212 9.365-3.336 9.134-4.452 20.432-2.646 29.589l.667 1.116.092.161h.345c5.71.002 11.389.823 16.866 2.439.989-12.931.437-23.504-1.473-31.316-1.035-4.199-2.416-7.397-4.015-9.572l-.046-.069c-.806-1.212-1.945-2.167-3.279-2.75h-.046v-.011z"/></svg>